June Havens (Diaz) finds her everyday life tangled with that of a secret agent (Cruise) who has realized he isn't supposed to survive his latest mission. As their campaign to stay alive stretches across the globe, they soon learn that all they can count on is each other. 



included the sample.
--------------------
Enjoy.



  
http://www.imdb.com/title/tt1013743/
Genre:Action | Comedy | Thriller
MOVIEmeter: Up 60% in popularity this week
User Rating:6.8/10


 
Video
ID : 0
Format : MPEG-4 Visual
Format profile : Simple@L3
Format settings, BVOP : No
Format settings, QPel : No
Format settings, GMC : No warppoints
Format settings, Matrix : Default (H.263)
Codec ID : XVID
Codec ID/Hint : XviD
Duration : 1h 44mn
Bit rate : 768 Kbps
Width : 704 pixels
Height : 304 pixels
Display aspect ratio : 2.35:1
Frame rate : 25.000 fps
Resolution : 8 bits
Colorimetry : 4:2:0
Scan type : Progressive
Bits/(Pixel*Frame) : 0.143
Stream size : 572 MiB (95%)
Writing library : XviD 1.2.1 (UTC 2008-12-04)

Audio
ID : 1
Format : MPEG Audio
Format version : Version 2
Format profile : Layer 3
Codec ID : 55
Codec ID/Hint : MP3
Duration : 1h 44mn
Bit rate mode : Constant
Bit rate : 32.0 Kbps
Channel(s) : 1 channel
Sampling rate : 22.05 KHz
Stream size : 23.8 MiB (4%)
Alignment : Split accross interleaves
Interleave, duration : 40 ms (1.00 video frame)
Interleave, preload duration : 500 ms


Screenshots
 
http://postimg.com/image/18000/17004.jpg
 
http://postimg.com/image/18000/17003.jpg

